<svg xmlns="http://www.w3.org/2000/svg" viewBox="0 0 1200 800" role="img" aria-labelledby="title desc">
  <title id="title">Default event image</title>
  <desc id="desc">A simple green landscape illustration used when an event image is missing.</desc>
  <defs>
    <linearGradient id="sky" x1="0" x2="0" y1="0" y2="1">
      <stop offset="0%" stop-color="#eef8ea" />
      <stop offset="100%" stop-color="#d9efd8" />
    </linearGradient>
    <linearGradient id="hillBack" x1="0" x2="1" y1="0" y2="1">
      <stop offset="0%" stop-color="#9bcca3" />
      <stop offset="100%" stop-color="#6fa57e" />
    </linearGradient>
    <linearGradient id="hillFront" x1="0" x2="1" y1="0" y2="1">
      <stop offset="0%" stop-color="#4e825e" />
      <stop offset="100%" stop-color="#2f6b48" />
    </linearGradient>
  </defs>
  <rect width="1200" height="800" fill="url(#sky)" />
  <circle cx="924" cy="164" r="74" fill="#f8f3b0" />
  <path d="M0 502C134 422 253 409 373 449C498 491 584 492 698 433C791 386 886 382 998 420C1085 451 1152 455 1200 444V800H0Z" fill="url(#hillBack)" />
  <path d="M0 584C94 530 207 521 337 557C477 596 575 594 691 536C813 474 930 481 1071 548C1127 573 1171 584 1200 587V800H0Z" fill="url(#hillFront)" />
  <path d="M358 575L456 406L560 575Z" fill="#3c734f" />
  <path d="M484 575L620 340L764 575Z" fill="#315f41" />
  <rect x="0" y="664" width="1200" height="136" fill="#28523c" opacity="0.12" />
</svg>
